HIERARCHY
ROOT hip
{
  OFFSET 0 0 0
  CHANNELS 6 Xposition Yposition Zposition Zrotation Yrotation Xrotation
  JOINT abdomen
  {
    OFFSET 0 20.6881 -0.73152
    CHANNELS 3 Zrotation Xrotation Yrotation
    JOINT chest
    {
      OFFSET 0 11.7043 -0.48768
      CHANNELS 3 Zrotation Xrotation Yrotation
      JOINT neck
      {
        OFFSET 0 22.1894 -2.19456
        CHANNELS 3 Zrotation Xrotation Yrotation
        JOINT head
        {
          OFFSET -0.24384 7.07133 1.2192
          CHANNELS 3 Zrotation Xrotation Yrotation
          JOINT leftEye
          {
            OFFSET 4.14528 8.04674 8.04672
            CHANNELS 3 Zrotation Xrotation Yrotation
            End Site
            {
              OFFSET 1 0 0
            }
          }
          JOINT rightEye
          {
            OFFSET -3.6576 8.04674 8.04672
            CHANNELS 3 Zrotation Xrotation Yrotation
            End Site
            {
              OFFSET 1 0 0
            }
          }
        }
      }
      JOINT rCollar
      {
        OFFSET -2.68224 19.2634 -4.8768
        CHANNELS 3 Zrotation Xrotation Yrotation
        JOINT rShldr
        {
          OFFSET -8.77824 -1.95073 1.46304
          CHANNELS 3 Zrotation Xrotation Yrotation
          JOINT rForeArm
          {
            OFFSET -28.1742 -1.7115 0.48768
            CHANNELS 3 Zrotation Xrotation Yrotation
            JOINT rHand
            {
              OFFSET -22.5879 0.773209 7.07136
              CHANNELS 3 Zrotation Xrotation Yrotation
              JOINT rThumb1
              {
                OFFSET -1.2192 -0.487915 3.41376
                CHANNELS 3 Zrotation Xrotation Yrotation
                JOINT rThumb2
                {
                  OFFSET -3.37035 -0.52449 3.41376
                  CHANNELS 3 Zrotation Xrotation Yrotation
                  End Site
                  {
                    OFFSET -1.78271 -1.18214 1.43049
                  }
                }
              }
              JOINT rIndex1
              {
                OFFSET -7.75947 0.938293 5.60832
                CHANNELS 3 Zrotation Xrotation Yrotation
                JOINT rIndex2
                {
                  OFFSET -2.54057 -0.884171 1.56538
                  CHANNELS 3 Zrotation Xrotation Yrotation
                  End Site
                  {
                    OFFSET -1.62519 -0.234802 1.16502
                  }
                }
              }
              JOINT rMid1
              {
                OFFSET -8.24714 1.18213 3.41376
                CHANNELS 3 Zrotation Xrotation Yrotation
                JOINT rMid2
                {
                  OFFSET -3.10165 -0.590103 1.0647
                  CHANNELS 3 Zrotation Xrotation Yrotation
                  End Site
                  {
                    OFFSET -2.48547 -0.328903 0.83742
                  }
                }
              }
              JOINT rRing1
              {
                OFFSET -8.82822 0.546677 1.51678
                CHANNELS 3 Zrotation Xrotation Yrotation
                JOINT rRing2
                {
                  OFFSET -2.60934 -0.819778 -0.0198488
                  CHANNELS 3 Zrotation Xrotation Yrotation
                  End Site
                  {
                    OFFSET -2.33842 -0.294052 0.168128
                  }
                }
              }
              JOINT rPinky1
              {
                OFFSET -8.27202 -0.0477905 -0.4584
                CHANNELS 3 Zrotation Xrotation Yrotation
                JOINT rPinky2
                {
                  OFFSET -1.82734 -0.647385 -0.700984
                  CHANNELS 3 Zrotation Xrotation Yrotation
                  End Site
                  {
                    OFFSET -1.69225 -0.51767 -0.607171
                  }
                }
              }
            }
          }
        }
      }
      JOINT lCollar
      {
        OFFSET 2.68224 19.2634 -4.8768
        CHANNELS 3 Zrotation Xrotation Yrotation
        JOINT lShldr
        {
          OFFSET 8.77824 -1.95073 1.46304
          CHANNELS 3 Zrotation Xrotation Yrotation
          JOINT lForeArm
          {
            OFFSET 28.1742 -1.7115 0.48768
            CHANNELS 3 Zrotation Xrotation Yrotation
            JOINT lHand
            {
              OFFSET 22.5879 0.773209 7.07136
              CHANNELS 3 Zrotation Xrotation Yrotation
              JOINT lThumb1
              {
                OFFSET 1.2192 -0.487915 3.41376
                CHANNELS 3 Zrotation Xrotation Yrotation
                JOINT lThumb2
                {
                  OFFSET 3.37035 -0.52449 3.41376
                  CHANNELS 3 Zrotation Xrotation Yrotation
                  End Site
                  {
                    OFFSET 1.78271 -1.18214 1.43049
                  }
                }
              }
              JOINT lIndex1
              {
                OFFSET 7.75947 0.938293 5.60832
                CHANNELS 3 Zrotation Xrotation Yrotation
                JOINT lIndex2
                {
                  OFFSET 2.54057 -0.884171 1.56538
                  CHANNELS 3 Zrotation Xrotation Yrotation
                  End Site
                  {
                    OFFSET 1.62519 -0.234802 1.16502
                  }
                }
              }
              JOINT lMid1
              {
                OFFSET 8.24714 1.18213 3.41376
                CHANNELS 3 Zrotation Xrotation Yrotation
                JOINT lMid2
                {
                  OFFSET 3.10165 -0.590103 1.0647
                  CHANNELS 3 Zrotation Xrotation Yrotation
                  End Site
                  {
                    OFFSET 2.48547 -0.328903 0.83742
                  }
                }
              }
              JOINT lRing1
              {
                OFFSET 8.82822 0.546677 1.51678
                CHANNELS 3 Zrotation Xrotation Yrotation
                JOINT lRing2
                {
                  OFFSET 2.60934 -0.819778 -0.0198488
                  CHANNELS 3 Zrotation Xrotation Yrotation
                  End Site
                  {
                    OFFSET 2.33842 -0.294052 0.168128
                  }
                }
              }
              JOINT lPinky1
              {
                OFFSET 8.27202 -0.0477905 -0.4584
                CHANNELS 3 Zrotation Xrotation Yrotation
                JOINT lPinky2
                {
                  OFFSET 1.82734 -0.647385 -0.700984
                  CHANNELS 3 Zrotation Xrotation Yrotation
                  End Site
                  {
                    OFFSET 1.69225 -0.51767 -0.607171
                  }
                }
              }
            }
          }
        }
      }
    }
  }
  JOINT rButtock
  {
    OFFSET -8.77824 4.35084 1.2192
    CHANNELS 3 Zrotation Xrotation Yrotation
    JOINT rThigh
    {
      OFFSET 0 -1.70687 -2.19456
      CHANNELS 3 Zrotation Xrotation Yrotation
      JOINT rShin
      {
        OFFSET 0 -36.8199 0.73152
        CHANNELS 3 Zrotation Xrotation Yrotation
        JOINT rFoot
        {
          OFFSET 0.73152 -45.1104 -5.12064
          CHANNELS 3 Zrotation Xrotation Yrotation
          End Site
          {
            OFFSET -1.1221 -3.69964 12.103
          }
        }
      }
    }
  }
  JOINT lButtock
  {
    OFFSET 8.77824 4.35084 1.2192
    CHANNELS 3 Zrotation Xrotation Yrotation
    JOINT lThigh
    {
      OFFSET 0 -1.70687 -2.19456
      CHANNELS 3 Zrotation Xrotation Yrotation
      JOINT lShin
      {
        OFFSET 0 -36.8199 0.73152
        CHANNELS 3 Zrotation Xrotation Yrotation
        JOINT lFoot
        {
          OFFSET -0.73152 -45.1104 -5.12064
          CHANNELS 3 Zrotation Xrotation Yrotation
          End Site
          {
            OFFSET 1.1221 -3.69964 12.103
          }
        }
      }
    }
  }
}
MOTION
Frames:	4
Frame Time:	0.03333
-67.71545742096232 44.06018771301284 -109.85464337087232 10.332046508789062 29.132652282714844 10.296996116638184 -17.717689514160156 10.214605331420898 1.9061428308486938 5.405846118927002 -10.968292236328125 -1.0939970016479492 -8.423652648925781 18.503665924072266 -14.923768997192383 11.873296737670898 -29.93375587463379 -23.12325096130371 -0.06478351354598999 -0.5257883071899414 -1.5251610279083252 -0.35005173087120056 0.8984207510948181 -1.7856923341751099 -0.6274126768112183 -0.09393054246902466 -0.9837190508842468 29.342771530151367 -6.749786376953125 52.04706573486328 -11.605914115905762 -3.549656391143799 17.137746810913086 1.305631399154663 27.873523712158203 1.6968828439712524 0.6004937887191772 0.16901525855064392 -1.5634570121765137 -0.8803587555885315 0.017900031059980392 -1.6052833795547485 0.3669777810573578 -0.9807445406913757 -1.1374224424362183 7.339142322540283 4.672510623931885 -0.9925858378410339 -0.28043901920318604 -1.0844930410385132 -1.4428616762161255 2.673698663711548 1.6715638637542725 -1.5312103033065796 -0.4344537556171417 -0.6972538232803345 -1.2985291481018066 10.372058868408203 1.6563940048217773 -1.398496389389038 -0.3222649097442627 1.07683527469635 -1.3540983200073242 1.8660496473312378 -1.5850658416748047 -1.3813318014144897 -0.2638784945011139 -0.19054864346981049 -1.6320679187774658 -112.37574005126953 53.12502670288086 45.02167510986328 27.961687088012695 -41.375892639160156 -83.93577575683594 6.38291597366333 -55.768856048583984 11.451505661010742 -0.5171295404434204 -0.4193294644355774 -1.551195740699768 0.2973388135433197 1.0184860229492188 -1.0896825790405273 -0.7466596961021423 -0.26196473836898804 -1.4132736921310425 -7.442030429840088 5.200572490692139 -2.890958309173584 0.8051853179931641 0.5518004298210144 -1.7512553930282593 -1.763384461402893 0.42772233486175537 -0.7087540626525879 -0.5405701994895935 0.635120689868927 -1.7957428693771362 -10.445474624633789 1.088508129119873 -1.0391364097595215 -0.49368828535079956 0.4183160960674286 -1.007308840751648 -1.758231520652771 -0.9490621089935303 -1.302548885345459 0.6386512517929077 0.9928843975067139 -2.242550849914551 -76.7703857421875 -59.30949020385742 -70.49774169921875 -5.481513977050781 75.52928161621094 4.4683990478515625 0.6462499499320984 0.16434337198734283 5.1711812019348145 0.22456985712051392 -0.41011911630630493 -1.769402027130127 8.31811237335205 12.859626770019531 1.7423932552337646 -0.4422779679298401 29.93372917175293 -3.740664005279541 6.895480632781982 -11.760104179382324 32.26765441894531
-69.22688308852459 44.069387977824846 -112.43529523908212 10.311319351196289 28.918947219848633 10.224869728088379 -17.659704208374023 10.24216365814209 1.8016778230667114 5.360241413116455 -10.992474555969238 -1.2091706991195679 -8.360041618347168 18.47673797607422 -14.974089622497559 11.821128845214844 -29.983692169189453 -23.106901168823242 -0.05871504545211792 -0.5171084403991699 -1.621118187904358 -0.32903191447257996 0.9056796431541443 -1.8865665197372437 -0.6219106316566467 -0.09808016568422318 -1.0902360677719116 29.092763900756836 -6.291075229644775 51.85784912109375 -11.650975227355957 -3.5560731887817383 17.16851043701172 1.2791589498519897 27.87654685974121 1.6082128286361694 0.5759295225143433 0.16940346360206604 -1.6603080034255981 -0.8883708715438843 0.02234848029911518 -1.689823865890503 0.37685561180114746 -0.9886432886123657 -1.2412420511245728 7.355294704437256 4.6694440841674805 -1.0998835563659668 -0.294323205947876 -1.0984002351760864 -1.523473858833313 2.670799732208252 1.6544477939605713 -1.647168517112732 -0.451443076133728 -0.6993763446807861 -1.4224148988723755 10.359176635742188 1.6587162017822266 -1.4762966632843018 -0.324553519487381 1.0884639024734497 -1.4701812267303467 1.8524727821350098 -1.568648338317871 -1.4844213724136353 -0.28103798627853394 -0.18485739827156067 -1.742266297340393 -112.12370300292969 53.203887939453125 44.52009201049805 27.96809196472168 -41.29247283935547 -84.06102752685547 6.308346748352051 -55.48567581176758 11.242080688476562 -0.5088117718696594 -0.4302460253238678 -1.6480027437210083 0.2971302270889282 1.0247774124145508 -1.183414101600647 -0.7429437041282654 -0.2651592195034027 -1.521715760231018 -7.4404706954956055 5.197592258453369 -3.0253584384918213 0.8059360384941101 0.5525177717208862 -1.8406814336776733 -1.7727800607681274 0.4314168095588684 -0.8206981420516968 -0.5136841535568237 0.6164364814758301 -1.8956339359283447 -10.437844276428223 1.1164352893829346 -1.1485395431518555 -0.5019626021385193 0.3998582065105438 -1.1181145906448364 -1.7711735963821411 -0.9593067765235901 -1.4102857112884521 0.6553094983100891 0.9864871501922607 -2.3627374172210693 -76.61691284179688 -59.400264739990234 -70.51091003417969 -5.437827110290527 75.5504150390625 4.3198089599609375 0.5964878797531128 0.16440896689891815 4.941303253173828 0.21736498177051544 -0.42854028940200806 -1.8694621324539185 8.242810249328613 12.77608871459961 1.6934874057769775 -0.3973414897918701 30.039979934692383 -3.85003662109375 6.842020511627197 -11.691802024841309 32.091957092285156
-70.74915424271519 44.26455721826338 -115.00900763509519 10.342458724975586 28.703388214111328 10.632342338562012 -17.793739318847656 10.11215877532959 2.2698867321014404 5.423851013183594 -10.8838472366333 -0.7022626399993896 -8.402755737304688 18.50042152404785 -14.5471773147583 11.842415809631348 -29.960586547851562 -22.72486114501953 -0.10966254770755768 -0.4663022458553314 -1.1130602359771729 -0.341579407453537 0.9251273274421692 -1.4035218954086304 -0.6206873655319214 -0.10868162661790848 -0.6378234624862671 29.04849624633789 -6.3233137130737305 52.2825813293457 -11.608287811279297 -3.411925792694092 17.332321166992188 1.2900289297103882 27.862653732299805 2.147981882095337 0.5612539052963257 0.1810895800590515 -1.2015093564987183 -0.87568199634552 0.048014286905527115 -1.1969165802001953 0.3557214140892029 -0.9964601397514343 -0.7587618827819824 7.343356609344482 4.606042861938477 -0.6182866096496582 -0.266819030046463 -1.1474857330322266 -1.09961998462677 2.6458487510681152 1.6109366416931152 -1.1317938566207886 -0.43163731694221497 -0.6949554681777954 -0.9237425923347473 10.332332611083984 1.688158631324768 -0.9871582388877869 -0.31378138065338135 1.0777370929718018 -1.0098445415496826 1.8158339262008667 -1.569820523262024 -0.9826489686965942 -0.30457237362861633 -0.21384291350841522 -1.2019835710525513 -111.91796112060547 52.94021224975586 45.06584167480469 27.863454818725586 -41.16177749633789 -83.44913482666016 6.110117435455322 -55.088104248046875 11.505725860595703 -0.4526442885398865 -0.49155768752098083 -1.1002241373062134 0.2988030016422272 1.0147932767868042 -0.699303150177002 -0.7848374843597412 -0.3019905686378479 -0.9988897442817688 -7.478322982788086 5.13443660736084 -2.5632309913635254 0.795092761516571 0.5443865656852722 -1.3360130786895752 -1.7791558504104614 0.37055280804634094 -0.3254716992378235 -0.5425441265106201 0.6370295882225037 -1.4052307605743408 -10.415905952453613 1.0546733140945435 -0.6285489797592163 -0.5034964680671692 0.40156078338623047 -0.5999292135238647 -1.7825993299484253 -0.9507102966308594 -0.8955027461051941 0.6618805527687073 1.0359147787094116 -1.868599772453308 -76.28045654296875 -59.56059646606445 -69.6845703125 -5.0841522216796875 75.31397247314453 4.458664894104004 0.6579853296279907 0.22065941989421844 5.498530864715576 0.18893128633499146 -0.4529002606868744 -1.3501102924346924 7.9429426193237305 13.095486640930176 2.2054245471954346 -0.3378853499889374 29.596433639526367 -3.3802077770233154 7.001610279083252 -11.739893913269043 32.69197463989258
-72.29025153269247 44.380120603925405 -117.59049299982713 10.382282257080078 28.7117862701416 10.746455192565918 -17.86484146118164 10.033201217651367 2.427245855331421 5.464376449584961 -10.835612297058105 -0.5660537481307983 -8.431349754333496 18.501237869262695 -14.45071792602539 11.859662055969238 -29.910377502441406 -22.663209915161133 -0.12043487280607224 -0.43344277143478394 -0.9702745079994202 -0.3462846875190735 0.8973942995071411 -1.2523072957992554 -0.6119512915611267 -0.12250342220067978 -0.5070908069610596 28.967769622802734 -6.634594917297363 52.52959442138672 -11.507286071777344 -3.479292154312134 17.31883430480957 1.3116555213928223 27.832244873046875 2.3259761333465576 0.5845373272895813 0.1840304285287857 -1.104469895362854 -0.8700015544891357 0.06901989132165909 -1.0739964246749878 0.3137960731983185 -0.973674476146698 -0.6489996314048767 7.340183734893799 4.588933944702148 -0.5026938915252686 -0.2618548572063446 -1.1710948944091797 -0.9883114695549011 2.617880344390869 1.5835816860198975 -0.9708077907562256 -0.4394363760948181 -0.722522497177124 -0.8001912236213684 10.339303016662598 1.7064847946166992 -0.8292138576507568 -0.30601802468299866 1.0370157957077026 -0.8991098403930664 1.811788558959961 -1.538267970085144 -0.8406110405921936 -0.30498436093330383 -0.23228144645690918 -1.0502561330795288 -111.74105834960938 52.760169982910156 45.283042907714844 27.76528549194336 -41.1205940246582 -83.22888946533203 5.98345947265625 -54.775054931640625 11.530672073364258 -0.39818817377090454 -0.49199873208999634 -0.9390568733215332 0.2927452027797699 0.986886203289032 -0.5826671719551086 -0.812556266784668 -0.30495592951774597 -0.8431515693664551 -7.5047407150268555 5.091756820678711 -2.412846326828003 0.7706630229949951 0.5567984580993652 -1.2204965353012085 -1.773070216178894 0.36542439460754395 -0.17227326333522797 -0.5670126676559448 0.6481442451477051 -1.260600209236145 -10.411548614501953 0.9836398959159851 -0.46695470809936523 -0.47735512256622314 0.39647921919822693 -0.4491889476776123 -1.790349006652832 -0.9449338912963867 -0.7286322712898254 0.6415802240371704 1.0523004531860352 -1.7385846376419067 -76.07228088378906 -59.643211364746094 -69.32121276855469 -4.935763359069824 75.20338439941406 4.435908317565918 0.6583027839660645 0.16999340057373047 5.65606164932251 0.17373044788837433 -0.475364089012146 -1.2169755697250366 7.822203159332275 13.36595630645752 2.282749891281128 -0.29921555519104004 29.20675277709961 -3.2351250648498535 7.064062595367432 -11.742646217346191 32.879459381103516
